<?xml version="1.0" encoding="UTF-8"?>
<svg width="26px" height="23px" viewBox="0 0 26 23" version="1.1" xmlns="http://www.w3.org/2000/svg" xmlns:xlink="http://www.w3.org/1999/xlink">
    <!-- Generator: Sketch 63.1 (92452) - https://sketch.com -->
    <title>Icons / Delivery</title>
    <desc>Created with Sketch.</desc>
    <g id="V&amp;F-II" stroke="none" stroke-width="1" fill="none" fill-rule="evenodd">
        <g id="vf_icons" transform="translate(-925.000000, -437.000000)">
            <g id="Box" transform="translate(926.000000, 438.000000)">
                <g fill="#111111">
                    <path d="M23.8666667,8.46666667 L21,0.333333333 L3,0.333333333 L0.2,8.26666667 L0.2,20.9333333 L23.8666667,20.9333333 L23.8666667,8.46666667 Z M3.73333333,1.33333333 L20.2666667,1.33333333 L22.6,7.93333333 L1.4,7.93333333 L3.73333333,1.33333333 Z M22.8,20 L1.2,20 L1.2,8.93333333 L22.8666667,8.93333333 L22.8,20 L22.8,20 Z" id="XMLID_894_" stroke="#111111" stroke-width="0.75" fill-rule="nonzero" stroke-linejoin="round"></path>
                    <path d="M15.9976276,11.8658656 L15.8973125,11.7585842 C15.6144071,11.4560326 15.1398005,11.4401062 14.837249,11.7230116 C14.8336953,11.7263345 14.830174,11.7296919 14.8266856,11.7330834 L10.5375,15.903125 L10.5375,15.903125 L9.17331437,14.5768334 C8.87632535,14.2880941 8.40149871,14.2947818 8.11275939,14.5917708 C8.10936792,14.5952592 8.10601048,14.5987805 8.10268753,14.6023342 L8.00237245,14.7096156 C7.72335234,15.0080121 7.73447133,15.4748332 8.0273817,15.7596072 L10.0146912,17.6917137 C10.3057821,17.9747188 10.7692179,17.9747188 11.0603088,17.6917137 L15.9726183,12.9158572 C16.2655287,12.6310832 16.2766477,12.1642621 15.9976276,11.8658656 Z" id="XMLID_893_" fill-rule="nonzero"></path>
                </g>
                <rect id="Rectangle" stroke="#000000" fill="#D8D8D8" x="11.5" y="1.5" width="1" height="6"></rect>
            </g>
        </g>
    </g>
</svg>